<?xml version="1.0" standalone="no"?>
<!DOCTYPE svg PUBLIC "-//W3C//DTD SVG 20010904//EN"
 "http://www.w3.org/TR/2001/REC-SVG-20010904/DTD/svg10.dtd">
<svg version="1.0" xmlns="http://www.w3.org/2000/svg"
 width="512.000000pt" height="512.000000pt" viewBox="0 0 512.000000 512.000000"
 preserveAspectRatio="xMidYMid meet">
<metadata>
Created by potrace 1.11, written by Peter Selinger 2001-2013
</metadata>
<g transform="translate(0.000000,512.000000) scale(0.100000,-0.100000)"
fill="#000000" stroke="none">
<path d="M2048 5115 c-2 -2 -73 -6 -158 -10 -85 -3 -173 -8 -195 -10 -22 -2
-79 -6 -127 -10 -48 -3 -98 -8 -110 -10 -13 -2 -45 -6 -73 -10 -27 -3 -70 -8
-95 -11 -60 -7 -269 -54 -289 -64 -9 -4 -33 -16 -55 -26 -21 -11 -47 -30 -58
-44 -20 -25 -20 -34 -14 -495 3 -258 8 -519 10 -580 3 -60 8 -184 11 -275 3
-91 8 -196 10 -235 2 -38 7 -122 10 -185 11 -190 13 -218 19 -308 6 -84 12
-157 21 -252 3 -25 7 -74 10 -110 10 -126 16 -185 20 -210 3 -14 7 -56 10 -93
3 -38 7 -72 9 -75 2 -4 7 -45 10 -92 4 -47 9 -92 11 -100 2 -8 6 -33 9 -55 4
-36 11 -83 31 -220 11 -75 26 -160 55 -315 16 -85 31 -166 34 -180 11 -65 89
-357 122 -455 126 -381 263 -582 454 -664 30 -13 145 -16 815 -18 867 -3 825
-5 933 65 135 88 256 288 364 602 43 126 122 442 157 630 16 91 33 179 36 195
5 30 11 64 20 130 3 19 7 51 10 70 3 19 7 52 10 73 3 20 7 44 10 52 2 8 7 40
9 71 3 31 8 72 10 90 5 34 15 122 22 189 2 19 6 55 8 80 3 25 8 71 11 102 3
32 7 82 10 110 3 29 7 80 10 113 3 33 7 85 10 115 3 30 7 93 10 140 3 47 8
113 10 145 2 33 7 110 10 170 3 61 8 133 10 161 2 29 7 130 10 225 3 96 8 235
11 309 3 74 7 341 11 592 6 527 12 491 -90 539 -68 31 -236 74 -337 84 -36 4
-72 8 -80 10 -15 3 -89 11 -180 20 -25 2 -90 7 -145 11 -55 3 -129 8 -165 10
-74 5 -1198 13 -1202 9z"/>
</g>
</svg>
